<svg width="20" height="20" viewBox="0 0 20 20" fill="none" xmlns="http://www.w3.org/2000/svg">
<path d="M7.00001 12V12.75C7.00001 13.3023 7.44773 13.75 8.00001 13.75H10M13 8V7.25C13 6.69772 12.5523 6.25 12 6.25L10 6.25M10 6.25H8.70431C7.76305 6.25 7 7.01305 7 7.95431C7 8.6801 7.45965 9.32627 8.14528 9.56433L12.0183 10.9091C12.606 11.1132 13 11.6671 13 12.2892C13 13.096 12.3459 13.75 11.5391 13.75H10M10 6.25V5M10 13.75L10 15M19 10C19 14.9706 14.9706 19 10 19C5.02944 19 1 14.9706 1 10C1 5.02944 5.02944 1 10 1C14.9706 1 19 5.02944 19 10Z" stroke="#404040" stroke-linecap="round" stroke-linejoin="round"/>
</svg>
