<svg width="150" height="43" viewBox="0 0 150 43" fill="none" xmlns="http://www.w3.org/2000/svg">
<g clip-path="url(#clip0_2210_4651)">
<path d="M149.477 37.1949L128.082 0.0474554H112.387L94.955 30.3151C94.7899 30.6016 94.9957 30.9606 95.3264 30.9606H125.768L122.302 24.9406H104.985L115.83 6.11009L115.805 6.06741H115.855L115.83 6.11009L133.237 36.3351C133.403 36.622 133.197 36.9805 132.866 36.9805H15.4428V0.000976562H0.000854492V39.1304C0.000854492 41.268 1.72913 43.0005 3.86145 43.0005H146.134C149.106 43.0005 150.964 39.7754 149.477 37.1954L149.477 37.1949Z" fill="#0048A1"/>
<path d="M38.6054 0H23.1635V30.9601H38.6054V0Z" fill="#0048A1"/>
<path d="M50.1862 30.9596H88.7907C90.9231 30.9596 92.6518 29.2271 92.6518 27.09V15.9095C92.6518 13.7719 90.9231 12.0394 88.7907 12.0394H69.4887V18.0594H77.2099V24.9387H61.768V6.01945H92.6518V-0.000502289V-0.000976562H50.1862C48.0539 -0.000976562 46.326 1.73202 46.326 3.86957V27.0895C46.326 29.2266 48.0543 30.9591 50.1862 30.9591V30.9596Z" fill="#0048A1"/>
<path d="M149.938 30.4919V0.0458984H132.403L149.938 30.4919Z" fill="#F39314"/>
<path d="M149.477 37.1949L128.082 0.0474554H112.387L94.955 30.3151C94.7899 30.6016 94.9957 30.9606 95.3264 30.9606H125.768L122.302 24.9406H104.985L115.83 6.11009L115.805 6.06741H115.855L115.83 6.11009L133.237 36.3351C133.403 36.622 133.197 36.9805 132.866 36.9805H15.4428V0.000976562H0.000854492V39.1304C0.000854492 41.268 1.72913 43.0005 3.86145 43.0005H146.134C149.106 43.0005 150.964 39.7754 149.477 37.1954L149.477 37.1949Z" fill="#0048A1"/>
<path d="M38.6054 0H23.1635V30.9601H38.6054V0Z" fill="#0048A1"/>
<path d="M50.1862 30.9596H88.7907C90.9231 30.9596 92.6518 29.2271 92.6518 27.09V15.9095C92.6518 13.7719 90.9231 12.0394 88.7907 12.0394H69.4887V18.0594H77.2099V24.9387H61.768V6.01945H92.6518V-0.000502289V-0.000976562H50.1862C48.0539 -0.000976562 46.326 1.73202 46.326 3.86957V27.0895C46.326 29.2266 48.0543 30.9591 50.1862 30.9591V30.9596Z" fill="#0048A1"/>
<path d="M149.938 30.4919V0.0458984H132.403L149.938 30.4919Z" fill="#F39314"/>
<path d="M149.477 37.1949L128.082 0.0474554H112.387L94.955 30.3151C94.7899 30.6016 94.9957 30.9606 95.3264 30.9606H125.768L122.302 24.9406H104.985L115.83 6.11009L115.805 6.06741H115.855L115.83 6.11009L133.237 36.3351C133.403 36.622 133.197 36.9805 132.866 36.9805H15.4428V0.000976562H0.000854492V39.1304C0.000854492 41.268 1.72913 43.0005 3.86145 43.0005H146.134C149.106 43.0005 150.964 39.7754 149.477 37.1954L149.477 37.1949Z" fill="#0048A1"/>
<path d="M38.6054 0H23.1635V30.9601H38.6054V0Z" fill="#0048A1"/>
<path d="M50.1862 30.9596H88.7907C90.9231 30.9596 92.6518 29.2271 92.6518 27.09V15.9095C92.6518 13.7719 90.9231 12.0394 88.7907 12.0394H69.4887V18.0594H77.2099V24.9387H61.768V6.01945H92.6518V-0.000502289V-0.000976562H50.1862C48.0539 -0.000976562 46.326 1.73202 46.326 3.86957V27.0895C46.326 29.2266 48.0543 30.9591 50.1862 30.9591V30.9596Z" fill="#0048A1"/>
<path d="M149.938 30.4919V0.0458984H132.403L149.938 30.4919Z" fill="#F39314"/>
<path d="M149.477 37.1949L128.082 0.0474554H112.387L94.955 30.3151C94.7899 30.6016 94.9957 30.9606 95.3264 30.9606H125.768L122.302 24.9406H104.985L115.83 6.11009L115.805 6.06741H115.855L115.83 6.11009L133.237 36.3351C133.403 36.622 133.197 36.9805 132.866 36.9805H15.4428V0.000976562H0.000854492V39.1304C0.000854492 41.268 1.72913 43.0005 3.86145 43.0005H146.134C149.106 43.0005 150.964 39.7754 149.477 37.1954L149.477 37.1949Z" fill="#0048A1"/>
<path d="M38.6054 0H23.1635V30.9601H38.6054V0Z" fill="#0048A1"/>
<path d="M50.1862 30.9596H88.7907C90.9231 30.9596 92.6518 29.2271 92.6518 27.09V15.9095C92.6518 13.7719 90.9231 12.0394 88.7907 12.0394H69.4887V18.0594H77.2099V24.9387H61.768V6.01945H92.6518V-0.000502289V-0.000976562H50.1862C48.0539 -0.000976562 46.326 1.73202 46.326 3.86957V27.0895C46.326 29.2266 48.0543 30.9591 50.1862 30.9591V30.9596Z" fill="#0048A1"/>
<path d="M149.938 30.4919V0.0458984H132.403L149.938 30.4919Z" fill="#F39314"/>
</g>
<defs>
<clipPath id="clip0_2210_4651">
<rect width="150" height="43" fill="white"/>
</clipPath>
</defs>
</svg>
