<svg width="41" height="20" viewBox="0 0 41 20" fill="none" xmlns="http://www.w3.org/2000/svg">
<path d="M21.2254 17.3393C20.4365 17.2865 19.527 17.1475 18.8095 16.9388C18.6752 16.8996 18.1188 16.6942 17.9772 16.6289C15.4796 15.4666 13.7396 12.9291 13.7396 9.98532C13.7396 5.94762 17.0092 2.65875 21.0306 2.65875C25.0163 2.65875 28.2638 5.89152 28.3196 9.88356H30.9536C30.8977 4.43299 26.4693 0.0156536 21.0306 0.0156536C15.5595 0.0156536 11.1063 4.48713 11.1063 9.98532C11.1063 13.7758 13.228 17.0725 16.3346 18.7567C16.8956 19.0548 17.7006 19.3621 17.974 19.4462C18.8595 19.711 19.9464 19.8872 20.9137 19.9609C21.2422 19.9856 22.3894 19.9987 22.7238 20H40.8622V17.3641H22.7543C22.5135 17.3641 21.461 17.3549 21.2254 17.3393ZM22.7543 13.2005C22.5628 13.2005 21.561 13.194 21.376 13.1783C21.0624 13.1516 20.6079 13.1046 20.3158 13.0374C19.986 12.9487 19.6763 12.8313 19.5367 12.7543C18.5583 12.2227 17.8915 11.1829 17.8915 9.98532C17.8915 8.24304 19.2958 6.83017 21.0306 6.83017C22.729 6.83017 24.1099 8.1876 24.1651 9.88356H26.6958C26.6426 6.78517 24.1288 4.28818 21.0306 4.28818C17.898 4.28818 15.3588 6.83865 15.3588 9.98532C15.3588 12.2044 16.6249 14.1209 18.4687 15.0595C18.7524 15.2265 19.2861 15.4013 19.438 15.4411C19.9587 15.5787 20.6579 15.6727 21.2254 15.7144C21.4351 15.732 22.4622 15.7399 22.679 15.7412V15.7451H40.8616V13.2005H22.7543ZM9.48323 19.9902H6.83174V2.66462H2.95708V-1.90735e-06H9.48323V19.9902ZM0.0458984 3.99596V6.55817H2.95708V19.9902H5.5047V3.99596H0.0458984Z" fill="#0048A1"/>
</svg>
